<svg xmlns="http://www.w3.org/2000/svg" version="1.1" xmlns:xlink="http://www.w3.org/1999/xlink" viewBox="0 0 200 200"><rect width="200" height="200" fill="url('#gradient')"></rect><defs><linearGradient id="gradient" gradientTransform="rotate(236 0.5 0.5)"><stop offset="0%" stop-color="#b26b40"></stop><stop offset="100%" stop-color="#441d05"></stop></linearGradient></defs><g><g fill="#ffffff" transform="matrix(2.1077186963979417,0,0,2.1077186963979417,20.58049307239608,114.99013736358434)" stroke="#c06a3e" stroke-width="0"><path d="M9.17-4.81L12.58-4.81Q12.51-3.33 11.78-2.19Q11.04-1.05 9.72-0.43Q8.40 0.20 6.70 0.20L6.70 0.20Q3.90 0.20 2.29-1.63Q0.67-3.46 0.67-6.79L0.67-6.79L0.67-7.49Q0.67-9.58 1.40-11.15Q2.13-12.71 3.50-13.57Q4.86-14.42 6.66-14.42L6.66-14.42Q9.25-14.42 10.82-13.06Q12.39-11.70 12.61-9.31L12.61-9.31L9.19-9.31Q9.15-10.61 8.54-11.17Q7.92-11.74 6.66-11.74L6.66-11.74Q5.38-11.74 4.79-10.78Q4.19-9.82 4.16-7.72L4.16-7.72L4.16-6.72Q4.16-4.44 4.73-3.47Q5.30-2.49 6.70-2.49L6.70-2.49Q7.88-2.49 8.51-3.05Q9.13-3.60 9.17-4.81L9.17-4.81ZM21.99 0L19.48-5.02L17.63-5.02L17.63 0L14.20 0L14.20-14.22L19.79-14.22Q22.32-14.22 23.75-13.10Q25.18-11.97 25.18-9.92L25.18-9.92Q25.18-8.44 24.58-7.46Q23.97-6.48 22.70-5.88L22.70-5.88L25.66-0.15L25.66 0L21.99 0ZM17.63-11.57L17.63-7.67L19.79-7.67Q20.77-7.67 21.26-8.18Q21.76-8.69 21.76-9.61Q21.76-10.53 21.26-11.05Q20.76-11.57 19.79-11.57L19.79-11.57L17.63-11.57ZM36.06-8.57L36.06-6.03L30.67-6.03L30.67-2.64L37.04-2.64L37.04 0L27.25 0L27.25-14.22L37.06-14.22L37.06-11.57L30.67-11.57L30.67-8.57L36.06-8.57ZM44.05-4.82L41.87-4.82L41.87 0L38.44 0L38.44-14.22L44.11-14.22Q45.74-14.22 47.00-13.62Q48.25-13.02 48.94-11.91Q49.63-10.80 49.63-9.39L49.63-9.39Q49.63-7.31 48.14-6.07Q46.65-4.82 44.05-4.82L44.05-4.82ZM41.87-11.57L41.87-7.47L44.11-7.47Q45.11-7.47 45.63-7.97Q46.15-8.47 46.15-9.38L46.15-9.38Q46.15-10.37 45.62-10.97Q45.08-11.56 44.15-11.57L44.15-11.57L41.87-11.57ZM60.27-8.57L60.27-6.03L54.88-6.03L54.88-2.64L61.25-2.64L61.25 0L51.46 0L51.46-14.22L61.27-14.22L61.27-11.57L54.88-11.57L54.88-8.57L60.27-8.57ZM74.69-7.47L74.69-6.82Q74.69-4.74 73.92-3.13Q73.14-1.53 71.72-0.67Q70.30 0.20 68.49 0.20Q66.67 0.20 65.26-0.64Q63.86-1.47 63.07-3.03Q62.29-4.58 62.25-6.59L62.25-6.59L62.25-7.39Q62.25-9.48 63.01-11.08Q63.78-12.68 65.21-13.54Q66.64-14.41 68.47-14.41L68.47-14.41Q70.27-14.41 71.69-13.55Q73.11-12.70 73.89-11.11Q74.68-9.52 74.69-7.47L74.69-7.47ZM71.20-6.76L71.20-7.41Q71.20-9.53 70.49-10.63Q69.79-11.73 68.47-11.73L68.47-11.73Q65.89-11.73 65.74-7.86L65.74-7.86L65.73-6.82Q65.73-4.73 66.43-3.60Q67.12-2.48 68.49-2.48L68.49-2.48Q69.79-2.48 70.49-3.58Q71.19-4.69 71.20-6.76L71.20-6.76Z"></path></g></g></svg>