<?xml version="1.0" standalone="no"?>
<!DOCTYPE svg PUBLIC "-//W3C//DTD SVG 20010904//EN"
 "http://www.w3.org/TR/2001/REC-SVG-20010904/DTD/svg10.dtd">
<svg version="1.0" xmlns="http://www.w3.org/2000/svg"
 width="500.000000pt" height="500.000000pt" viewBox="0 0 500.000000 500.000000"
 preserveAspectRatio="xMidYMid meet">

<g transform="translate(0.000000,500.000000) scale(0.100000,-0.100000)"
fill="#000000" stroke="none">
<path d="M3350 2850 c0 -47 3 -60 15 -60 12 0 15 13 15 60 0 47 -3 60 -15 60
-12 0 -15 -13 -15 -60z"/>
<path d="M3090 2792 c0 -13 74 -82 88 -82 21 0 13 15 -26 53 -36 35 -62 47
-62 29z"/>
<path d="M3587 2762 c-39 -40 -45 -52 -24 -52 13 0 87 70 87 83 0 18 -29 4
-63 -31z"/>
<path d="M3272 2734 c-56 -28 -95 -75 -112 -133 -13 -47 3 -124 36 -172 70
-100 74 -110 74 -192 0 -75 2 -80 32 -113 36 -38 87 -46 110 -19 7 9 20 24 30
33 12 13 17 41 20 108 3 89 4 92 44 145 58 76 67 96 67 156 0 112 -84 202
-196 210 -42 4 -62 -1 -105 -23z m201 -40 c28 -20 48 -45 61 -76 28 -67 17
-122 -40 -198 -25 -33 -51 -77 -57 -97 -12 -38 -12 -38 -15 31 -3 62 -1 71 23
95 19 21 25 37 25 74 0 48 -13 60 -37 36 -9 -9 -19 -9 -41 0 -24 10 -34 10
-51 0 -16 -11 -23 -11 -33 -1 -6 6 -20 12 -30 12 -29 0 -24 -75 8 -121 21 -31
25 -45 22 -100 l-3 -64 -12 38 c-6 20 -32 64 -56 97 -51 67 -64 117 -48 178
33 121 178 170 284 96z m-81 -170 c14 -14 20 -14 33 -4 27 23 18 -34 -10 -60
-22 -21 -25 -32 -25 -97 0 -71 -1 -73 -25 -73 -24 0 -25 2 -25 67 0 55 -4 72
-25 99 -35 46 -33 98 3 62 10 -9 16 -8 29 5 21 21 22 21 45 1z m38 -279 c0
-12 -14 -15 -65 -15 -51 0 -65 3 -65 15 0 12 14 15 65 15 51 0 65 -3 65 -15z
m0 -60 c0 -12 -14 -15 -65 -15 -51 0 -65 3 -65 15 0 12 14 15 65 15 51 0 65
-3 65 -15z m-30 -54 c0 -13 -34 -23 -54 -15 -28 11 -18 24 19 24 19 0 35 -4
35 -9z"/>
<path d="M1652 2704 c-18 -14 -38 -38 -46 -52 -40 -81 -64 -304 -38 -364 9
-23 18 -28 47 -28 33 0 38 4 55 43 11 23 20 59 20 79 0 35 3 38 40 48 34 9 44
8 65 -7 26 -19 65 -88 65 -116 0 -46 59 -15 61 32 1 18 4 13 11 -17 12 -57 39
-68 126 -51 72 13 158 39 187 56 17 10 17 13 5 28 -15 18 -26 17 -133 -9 -67
-17 -71 -13 -82 70 l-7 50 63 18 c75 21 109 34 91 35 -7 1 -11 5 -8 10 3 5
-28 7 -69 4 l-75 -4 6 58 c10 107 4 100 94 108 54 5 80 11 77 19 -4 11 -170
12 -234 1 -44 -8 -55 -48 -57 -199 l-1 -121 -40 40 c-22 22 -49 45 -59 50 -18
10 -18 12 7 52 14 23 31 44 37 48 23 14 10 63 -26 95 -66 58 -128 66 -182 24z
m128 -58 c0 -22 -64 -115 -90 -131 -23 -14 2 46 50 117 29 44 40 48 40 14z"/>
<path d="M2785 2723 c-91 -8 -103 -12 -114 -44 -22 -62 -25 -238 -6 -322 21
-97 32 -104 125 -88 74 14 164 40 195 58 17 10 17 13 5 28 -15 18 -26 17 -133
-9 -67 -17 -71 -13 -82 70 l-7 50 63 18 c75 21 109 34 91 35 -7 1 -11 5 -8 10
3 5 -28 7 -70 4 l-76 -4 7 58 c11 107 5 100 95 108 54 5 80 11 77 19 -4 11
-86 16 -162 9z"/>
<path d="M1358 2695 c-55 -37 -124 -159 -113 -199 5 -15 4 -17 -3 -8 -7 11
-11 8 -16 -13 -4 -14 -4 -30 -1 -35 3 -5 1 -11 -5 -15 -5 -3 -10 -26 -10 -49
0 -85 69 -118 203 -96 83 14 117 26 117 39 0 16 -33 18 -80 4 -102 -29 -141
-11 -148 70 -4 45 1 65 30 128 19 41 42 80 51 88 9 7 14 17 12 22 -3 4 6 16
20 25 25 16 27 16 46 -5 17 -18 27 -21 52 -15 40 8 40 8 33 32 -8 24 -73 52
-119 52 -18 0 -48 -11 -69 -25z"/>
<path d="M2375 2711 c-50 -9 -155 -56 -155 -70 0 -6 5 -11 10 -11 6 0 10 -7
10 -15 0 -8 10 -25 21 -36 21 -21 21 -27 14 -165 -6 -140 -3 -163 23 -131 5 6
13 37 17 67 10 73 18 86 60 94 20 4 55 17 78 30 23 13 62 34 86 47 24 13 60
38 80 56 l36 31 -39 40 c-50 52 -152 78 -241 63z m174 -87 l31 -7 -32 -24
c-36 -27 -169 -93 -189 -93 -8 0 -8 4 -1 13 5 6 14 32 19 57 l9 45 54 6 c30 3
60 6 66 7 6 1 26 -1 43 -4z"/>
<path d="M2983 2528 c2 -9 24 -13 62 -13 38 0 60 4 63 13 3 9 -14 12 -63 12
-49 0 -66 -3 -62 -12z"/>
<path d="M3632 2528 c3 -8 27 -14 61 -16 46 -2 57 0 57 13 0 12 -13 15 -61 15
-44 0 -60 -3 -57 -12z"/>
<path d="M3130 2305 c-24 -25 -41 -48 -37 -52 4 -4 28 14 53 39 26 25 42 48
37 51 -5 4 -29 -14 -53 -38z"/>
<path d="M3550 2337 c0 -21 77 -90 90 -82 8 5 -2 22 -31 51 -45 46 -59 53 -59
31z"/>
</g>
</svg>
